<svg width="12" height="13" fill="none" xmlns="http://www.w3.org/2000/svg"><path d="M5.063.5h1.875c.156 0 .289.055.398.164a.54.54 0 01.164.398V5h2.063c.203 0 .343.102.421.305a.416.416 0 01-.093.492L6.328 9.359a.45.45 0 01-.656 0L2.109 5.797a.416.416 0 01-.093-.492c.078-.203.218-.305.421-.305H4.5V1.062c0-.156.055-.289.164-.398A.542.542 0 015.063.5zM12 9.313v2.624c0 .157-.055.29-.164.399a.542.542 0 01-.399.164H.563a.542.542 0 01-.399-.164.542.542 0 01-.164-.399V9.313c0-.157.055-.29.164-.399a.542.542 0 01.398-.164h3.446l1.148 1.148c.235.235.516.352.844.352.328 0 .61-.117.844-.352L7.992 8.75h3.446c.156 0 .289.055.398.164.11.11.164.242.164.399zm-3.047 2.39a.45.45 0 000-.656.45.45 0 00-.656 0 .45.45 0 000 .656.45.45 0 00.656 0zm1.5 0a.45.45 0 000-.656.45.45 0 00-.656 0 .45.45 0 000 .656.45.45 0 00.656 0z" fill="#000"/></svg>