<svg width="197" height="30" fill="none" xmlns="http://www.w3.org/2000/svg"><g clip-path="url(#clip0_111_2)"><path d="M66.14 18.517a1.559 1.559 0 011.238-.787h3.085a.666.666 0 01.676.676V29.1a.665.665 0 01-.676.687h-2.29a.666.666 0 01-.677-.676v-7.213l-3.876 7.091a1.617 1.617 0 01-1.237.798h-3.086a.666.666 0 01-.676-.676V18.418a.666.666 0 01.676-.676h2.292a.662.662 0 01.675.676v7.217l3.877-7.118zm11.484 2.23a1.527 1.527 0 01-1.26.584H74.72a.666.666 0 01-.676-.675c0-2.341 2.341-3.15 5.988-3.15 3.242 0 5.785 1.35 5.785 4.795v6.802a.664.664 0 01-.66.683h-2.116a.666.666 0 01-.676-.676v-.336a6.56 6.56 0 01-3.986 1.238c-2.948 0-5.201-1.33-5.201-3.873s2.252-3.819 5.2-3.819h3.647c0-1.756-.744-2.29-2.253-2.29-.935-.027-1.768.244-2.15.717zm4.391 5.763v-1.711h-3.376c-1.057 0-1.665.584-1.665 1.329 0 .744.608 1.375 1.78 1.375a6.163 6.163 0 003.261-.993zm10.311-6.122v8.715a.663.663 0 01-.676.683h-2.456a.666.666 0 01-.676-.676V18.418a.664.664 0 01.676-.676h8.218a.662.662 0 01.676.676v1.306a.664.664 0 01-.676.676l-5.086-.012zm11.162 1.959h4.819v-3.94a.664.664 0 01.676-.677h2.455a.667.667 0 01.676.676V29.1a.65.65 0 01-.196.496.672.672 0 01-.499.191h-2.455a.67.67 0 01-.482-.194.674.674 0 01-.194-.482v-4.109h-4.8v4.102a.662.662 0 01-.427.64.664.664 0 01-.268.043h-2.456a.67.67 0 01-.479-.2.665.665 0 01-.189-.483V18.41a.666.666 0 01.676-.676h2.455a.669.669 0 01.637.41.655.655 0 01.051.262v3.941zm23.917 1.394c0 4.143-2.387 6.259-6.641 6.259s-6.645-2.123-6.645-6.259 2.387-6.236 6.641-6.236 6.645 2.093 6.645 6.236zm-3.819 0c0-2.673-.924-3.738-2.838-3.738-1.913 0-2.837 1.08-2.837 3.738s.936 3.754 2.849 3.754c1.913 0 2.837-1.096 2.837-3.754h-.011zm9.085.023c0 2.478.744 3.582 2.993 3.582 1.146 0 1.982-.428 2.364-1.035a1.465 1.465 0 011.26-.81h1.643a.665.665 0 01.675.676c0 2.567-2.34 3.82-6.213 3.82-4.277 0-6.64-2.116-6.64-6.237 0-4.12 2.386-6.259 6.53-6.259 3.872 0 6.213 1.26 6.213 3.819a.665.665 0 01-.676.676h-1.642a1.463 1.463 0 01-1.26-.81c-.382-.607-1.215-1.035-2.364-1.035-2.139.012-2.883 1.116-2.883 3.613zm21.117-6.034a.67.67 0 01.482.195.674.674 0 01.194.481v1.306a.664.664 0 01-.676.676h-3.513v8.715a.663.663 0 01-.672.684h-2.456a.665.665 0 01-.675-.677v-8.722h-3.514a.665.665 0 01-.676-.676v-1.306a.665.665 0 01.676-.676h10.83zm9.772.787a1.56 1.56 0 011.238-.787h3.085a.67.67 0 01.482.195.674.674 0 01.194.481V29.1a.662.662 0 01-.413.638.663.663 0 01-.263.05h-2.291a.67.67 0 01-.481-.195.662.662 0 01-.195-.482v-7.213l-3.876 7.091a1.617 1.617 0 01-1.241.798h-3.086a.665.665 0 01-.676-.676V18.418a.665.665 0 01.676-.676h2.292a.661.661 0 01.627.415c.034.083.05.172.049.26v7.218l3.879-7.118zm17.788 3.25a3.577 3.577 0 01-2.341 1.982c.924.27 1.665.901 2.341 1.982l1.867 3.016c.359.585.203 1.035-.381 1.035h-2.07a2.032 2.032 0 01-1.688-1.035l-1.398-2.29a3.011 3.011 0 00-2.612-1.463v4.109a.657.657 0 01-.192.486.661.661 0 01-.484.197h-2.455a.67.67 0 01-.482-.194.673.673 0 01-.194-.482V18.418a.664.664 0 01.676-.676h2.455a.666.666 0 01.676.676v4.086c1.306 0 2.162-.539 2.612-1.486l1.058-2.253a1.773 1.773 0 011.577-1.035h2.07c.584 0 .653.451.382 1.035l-1.417 3.002zm7.202-1.02a1.53 1.53 0 01-1.26.584h-1.642a.67.67 0 01-.481-.194.662.662 0 01-.195-.481c0-2.341 2.341-3.15 5.988-3.15 3.242 0 5.785 1.35 5.785 4.795v6.802a.656.656 0 01-.192.486.661.661 0 01-.484.197h-2.115a.667.667 0 01-.676-.676v-.336a6.562 6.562 0 01-3.987 1.238c-2.948 0-5.201-1.33-5.201-3.873s2.253-3.819 5.201-3.819h3.647c0-1.756-.741-2.29-2.253-2.29-.92-.027-1.753.244-2.135.717zm4.392 5.763v-1.711h-3.38c-1.058 0-1.665.584-1.665 1.329 0 .744.607 1.375 1.78 1.375a6.163 6.163 0 003.265-.993zM55.872 9.505h-7.73c-4.158 0-8.168 1.054-9.283 5.621l-2.665 10.841h-1.111a1.337 1.337 0 00-1.348 1.318v1.355a1.363 1.363 0 001.348 1.349h20.789a1.337 1.337 0 001.348-1.318V10.822a1.337 1.337 0 00-1.348-1.317zm-4.04 16.462H41.7l2.402-9.604c.408-1.726 1.638-2.81 3.436-2.81h4.277l.016 12.414z" fill="#FEE040"/><path d="M61.791.248h-2.704a.73.73 0 00-.744.745v4.353h-5.308V.993a.729.729 0 00-.745-.745h-2.704a.73.73 0 00-.744.745V8.74h4.2v-.48h5.308v4.514a.729.729 0 00.745.744h2.704a.728.728 0 00.744-.744V.993a.73.73 0 00-.752-.745zm11.681 13.27a.729.729 0 01-.744-.744V8.26c-1.016 0-1.837.546-2.383 1.611l-1.29 2.505a2 2 0 01-1.86 1.146h-2.292c-.645 0-.794-.47-.42-1.146l1.81-3.322c.596-1.115 1.314-1.886 2.578-2.184a3.685 3.685 0 01-2.578-2.184l-1.313-3.3c-.272-.668-.222-1.145.42-1.145h2.29a1.81 1.81 0 011.739 1.145l.916 2.482a2.405 2.405 0 002.383 1.639V.993a.729.729 0 01.745-.745h2.703a.73.73 0 01.745.745v4.514a2.406 2.406 0 002.383-1.639l.916-2.482A1.81 1.81 0 0181.958.241h2.291c.645 0 .695.47.42 1.145l-1.314 3.3a3.685 3.685 0 01-2.589 2.188c1.264.298 1.986 1.065 2.582 2.184l1.81 3.322c.382.669.225 1.146-.42 1.146h-2.291a2 2 0 01-1.86-1.146l-1.29-2.505c-.547-1.065-1.364-1.611-2.384-1.611v4.51a.729.729 0 01-.745.744h-2.696zM90.39 8.16c.171 1.986 1.065 2.853 3.1 2.853 1.043 0 1.96-.298 2.383-.817a1.7 1.7 0 011.386-.65h1.81a.73.73 0 01.745.765c0 2.581-2.673 3.47-6.621 3.47-4.415 0-7.069-2.382-7.069-6.873 0-4.49 2.677-6.908 7.053-6.908 4.376 0 7.069 2.356 7.069 6.721v.695a.726.726 0 01-.214.531.727.727 0 01-.531.214h-9.112zm-.023-2.554h5.632c-.076-1.86-.966-2.853-2.803-2.853s-2.734.993-2.833 2.853h.004zm16.317-.26h5.308V.993a.726.726 0 01.214-.531.723.723 0 01.531-.214h2.703a.73.73 0 01.745.745v11.78a.743.743 0 01-.052.288.743.743 0 01-.405.405.73.73 0 01-.288.052h-2.703a.734.734 0 01-.531-.213.726.726 0 01-.214-.531V8.26h-5.308v4.514a.743.743 0 01-.052.287.743.743 0 01-.405.405.73.73 0 01-.288.052h-2.703a.734.734 0 01-.531-.213.726.726 0 01-.214-.531V.993a.726.726 0 01.214-.531.723.723 0 01.531-.214h2.703a.73.73 0 01.745.745v4.353zm15.997 2.814c.172 1.986 1.065 2.853 3.101 2.853 1.042 0 1.959-.298 2.382-.817a1.708 1.708 0 011.39-.65h1.811a.73.73 0 01.744.765c0 2.581-2.673 3.47-6.621 3.47-4.415 0-7.069-2.382-7.069-6.873 0-4.49 2.677-6.908 7.065-6.908 4.387 0 7.068 2.356 7.068 6.721v.695a.743.743 0 01-.052.287.743.743 0 01-.405.405.728.728 0 01-.287.053h-9.127zm-.027-2.554h5.633c-.077-1.86-.966-2.853-2.803-2.853s-2.727.993-2.826 2.853h-.004zM142.848 0a7.1 7.1 0 00-4.228 1.363V.981a.732.732 0 00-.473-.687.732.732 0 00-.291-.046h-2.333a.727.727 0 00-.671.463.735.735 0 00-.051.282V16.76h.497a12.18 12.18 0 013.612.465.77.77 0 00.081-.34v-3.738a10.53 10.53 0 003.498.619c3.868 0 6.491-2.334 6.491-6.897 0-4.563-2.612-6.87-6.132-6.87zm-1.242 10.841a9.699 9.699 0 01-2.627-.496V4.017c.867-.546 1.986-1.092 2.876-1.092 1.985 0 2.803 1.215 2.803 3.945 0 2.73-.818 3.971-3.052 3.971zM155.4 5.346h5.308V.993a.72.72 0 01.212-.53.734.734 0 01.529-.215h2.703a.732.732 0 01.692.457c.037.092.055.19.053.288v11.78a.726.726 0 01-.214.532.723.723 0 01-.531.213h-2.703a.73.73 0 01-.745-.744V8.26h-5.308v4.514a.735.735 0 01-.452.69.727.727 0 01-.285.054h-2.704a.732.732 0 01-.733-.744V.993a.725.725 0 01.447-.688.724.724 0 01.282-.057h2.708a.728.728 0 01.745.745l-.004 4.353zm16.642-1.776a1.7 1.7 0 01-1.39.63h-1.81a.733.733 0 01-.693-.457.743.743 0 01-.052-.287c0-2.581 2.578-3.471 6.599-3.471 3.57 0 6.373 1.489 6.373 5.285v7.504a.725.725 0 01-.457.692.727.727 0 01-.287.052h-2.334a.727.727 0 01-.744-.744v-.382a7.232 7.232 0 01-4.392 1.363c-3.25 0-5.728-1.463-5.728-4.265 0-2.803 2.482-4.201 5.728-4.201h4.017c0-1.936-.817-2.532-2.482-2.532-1.019-.004-1.928.298-2.348.814zm4.838 6.359v-1.91h-3.719c-1.165 0-1.837.646-1.837 1.463 0 .817.668 1.527 1.959 1.527a6.786 6.786 0 003.597-1.08zm13.293-1.146l-2.058 3.67a2.056 2.056 0 01-1.887 1.065h-2.165c-.596 0-.794-.496-.447-1.065L186.03 8.4c-1.638-.618-2.582-1.71-2.582-3.868 0-3.2 2.208-4.266 5.408-4.266h7.145a.728.728 0 01.744.745v11.762a.743.743 0 01-.052.287.743.743 0 01-.405.405.729.729 0 01-.287.052h-2.704a.734.734 0 01-.531-.213.726.726 0 01-.214-.531v-3.99h-2.379zm2.383-2.753V3.002h-3.322c-.993 0-1.589.595-1.589 1.527 0 .932.596 1.528 1.589 1.528l3.322-.027zM44.843 16.531l-2.165 8.673h4.674v-10.88c-1.294.073-2.184.844-2.509 2.207zm2.509-15.053A1.94 1.94 0 0045.492 0H39.25c-1.027 0-2.272.943-2.872 1.97L24.54 22.76V1.928A1.947 1.947 0 0022.912.031L22.565 0H8.783a.79.79 0 000 1.577h8.401a.79.79 0 110 1.577h-4.036a.79.79 0 000 1.577h7.897a.79.79 0 010 1.578H7.996a.79.79 0 000 1.577h8.218a.79.79 0 110 1.577H6.343a.79.79 0 100 1.577h12.812a.79.79 0 010 1.577H2.028a.79.79 0 000 1.577h14.95a.79.79 0 010 1.581H3.956a.791.791 0 100 1.577h10.815a.791.791 0 110 1.578H.79a.79.79 0 000 1.577h19.066a.792.792 0 110 1.577H7.6a.79.79 0 000 1.577h10.35a.791.791 0 110 1.577H5.09a.79.79 0 000 1.577h9.784a.788.788 0 01.845.789.79.79 0 01-.845.788H4.411a.791.791 0 100 1.578h21.411c1.115 0 2.444-.902 3.055-1.971l10.93-19.414v2.997a7.355 7.355 0 012.71-1.91 13.667 13.667 0 014.835-.912V1.97c0-.149-.018-.297-.053-.442l.053-.05zM18.918 9.467a.79.79 0 110-1.582.79.79 0 010 1.582zm.218 9.485a.79.79 0 110-1.581.79.79 0 010 1.581zm-1.57 9.467a.79.79 0 11-.054-1.578.79.79 0 01.054 1.578zM6.099 1.581a.79.79 0 100-1.581.79.79 0 000 1.581z" fill="#fff"/><path d="M10.456 4.735a.79.79 0 100-1.58.79.79 0 000 1.58zm-8.05 22.122a.79.79 0 100-1.58.79.79 0 000 1.58zm-1.142-9.489a.79.79 0 100-1.581.79.79 0 000 1.58z" fill="#fff"/></g><defs><clipPath id="clip0_111_2"><path fill="#fff" d="M0 0h196.745v30H0z"/></clipPath></defs></svg>