<svg width="11" height="8" fill="none" xmlns="http://www.w3.org/2000/svg"><path d="M10.305 2.98c.039-.039.078-.045.117-.02.052.027.078.066.078.118v3.985c0 .26-.091.481-.273.664A.904.904 0 019.562 8H1.438a.904.904 0 01-.665-.273.904.904 0 01-.273-.665V3.079c0-.052.02-.085.059-.098.052-.026.097-.026.136 0 .43.326 1.433 1.062 3.008 2.208.026.026.11.097.254.214.156.118.28.209.371.274.091.052.208.123.352.215.143.078.28.136.41.175a1.559 1.559 0 00.762.02c.117-.04.227-.078.332-.117.104-.052.214-.117.332-.196l.293-.195c.078-.065.169-.137.273-.215a2.1 2.1 0 00.215-.176c1.536-1.106 2.539-1.842 3.008-2.207zM5.5 5.5c-.104 0-.234-.033-.39-.098a18.14 18.14 0 01-.352-.195l-.41-.293c-.17-.143-.26-.215-.274-.215A189.3 189.3 0 01.676 2.18.445.445 0 01.5 1.81v-.371c0-.26.091-.482.273-.665A.904.904 0 011.437.5h8.126c.26 0 .481.091.664.273a.904.904 0 01.273.664v.372c0 .156-.059.28-.176.37a160.37 160.37 0 01-3.398 2.52c-.013 0-.11.072-.293.215-.17.13-.3.228-.39.293a7.933 7.933 0 01-.372.195.925.925 0 01-.371.098z" fill="#FEE040"/></svg>