<svg width="12" height="11" fill="none" xmlns="http://www.w3.org/2000/svg"><path d="M11.994 8.688c0-.055 0-.11-.023-.165-.055-.164-.438-.335-.594-.414-.445-.25-.899-.492-1.336-.75C9.838 7.234 9.588 7 9.346 7c-.477 0-1.172 1.414-1.594 1.414-.211 0-.484-.195-.672-.305-1.422-.789-2.406-1.773-3.195-3.195-.11-.187-.305-.46-.305-.672 0-.422 1.414-1.117 1.414-1.594 0-.242-.234-.492-.36-.695-.257-.437-.5-.89-.75-1.336-.077-.156-.25-.539-.413-.594C3.416 0 3.36 0 3.307 0c-.282 0-.828.125-1.086.242-.383.164-.633.602-.828.953-.25.461-.399.93-.399 1.453 0 .727.297 1.383.54 2.047.171.477.382.938.648 1.367.82 1.329 2.422 2.93 3.75 3.75a7.3 7.3 0 001.367.649c.664.242 1.32.539 2.047.539.523 0 .992-.148 1.453-.398.351-.196.789-.446.953-.829.117-.257.242-.804.242-1.085z" fill="#fff"/></svg>